<svg width="36" height="36" viewBox="0 0 36 36" fill="none" xmlns="http://www.w3.org/2000/svg">
<g clip-path="url(#clip0_6_49)">
<path d="M17.9999 0C27.9416 0 36 8.05949 36 18.0001C36 27.9417 27.9416 36 17.9999 36C8.05826 36 0 27.9416 0 18.0001C0 8.05949 8.05838 0 17.9999 0Z" fill="#3B5998"/>
<path d="M20.1916 12.3918H22.5113V8.96506H19.7844V8.97742C16.4802 9.09444 15.803 10.9518 15.7433 12.9026H15.7365V14.6137H13.4866V17.9695H15.7365V26.965H19.1273V17.9695H21.9049L22.4415 14.6137H19.1284V13.5799C19.1284 12.9206 19.5671 12.3918 20.1916 12.3918Z" fill="white"/>
</g>
<defs>
<clipPath id="clip0_6_49">
<rect width="36" height="36" fill="white"/>
</clipPath>
</defs>
</svg>
