<svg width="342" height="176" viewBox="0 0 342 176" fill="none" xmlns="http://www.w3.org/2000/svg">
<g clip-path="url(#clip0_15_115)">
<path d="M40.1911 144.74C39.767 144.571 39.2269 145.519 38.8627 145.351C38.4997 145.182 38.9097 144.183 38.5776 142.878C38.5178 142.643 38.1405 141.161 37.5198 141.093C36.3434 140.964 35.3276 146.03 33.5696 145.986C33.1838 145.977 32.7212 145.72 31.5216 145.65C31.0444 145.622 30.7852 145.643 30.6504 145.814C30.4591 146.056 30.6853 146.388 30.9128 147.208C31.2541 148.438 30.985 148.555 31.3393 149.473C31.6023 150.155 31.8887 150.448 31.7431 150.66C31.5372 150.961 30.8307 150.569 30.5234 150.89C30.2098 151.218 30.5236 152.068 30.8514 152.632C31.4666 153.692 32.3096 154.054 33.0204 154.57C33.7929 155.13 34.7704 156.135 35.4846 158.075L41.2002 175.523C40.1031 171.885 37.261 161.782 36.3558 157.911C36.0945 156.794 35.8634 155.634 36.4624 154.643C37.039 153.689 38.3157 153.007 39.4881 151.548C39.625 151.377 40.0001 150.898 39.8468 150.578C39.7201 150.314 39.3476 150.399 39.2256 150.154C39.062 149.825 39.5993 149.404 40.0087 148.563C40.2974 147.97 40.3759 147.469 40.4433 147.038C40.4636 146.908 40.7556 144.964 40.1911 144.74L40.1911 144.74H40.1911Z" fill="#F2F2F2"/>
<path d="M26.636 166.717C26.431 166.877 26.7405 167.416 26.5525 167.546C26.3653 167.675 25.9929 167.186 25.2569 166.972C25.1242 166.934 24.2878 166.691 24.0753 166.976C23.6726 167.516 25.8658 169.477 25.3373 170.327C25.2213 170.514 24.9619 170.666 24.5814 171.235C24.43 171.461 24.3656 171.595 24.4105 171.71C24.4742 171.874 24.7023 171.858 25.1704 171.983C25.8725 172.171 25.8526 172.337 26.4053 172.428C26.8156 172.495 27.042 172.439 27.1043 172.572C27.1926 172.76 26.7961 172.993 26.8651 173.237C26.9356 173.485 27.4433 173.577 27.815 173.579C28.5125 173.582 28.9333 173.273 29.3916 173.073C29.8897 172.856 30.6649 172.666 31.8231 172.875L42.036 175.104C39.9335 174.593 34.155 173.073 31.994 172.4C31.3701 172.206 30.7343 171.985 30.4209 171.405C30.1191 170.847 30.1526 170.023 29.7746 169.027C29.7304 168.91 29.6034 168.588 29.4022 168.571C29.2358 168.557 29.1702 168.764 29.0147 168.753C28.806 168.739 28.7547 168.354 28.4598 167.91C28.2519 167.597 28.0286 167.414 27.8366 167.257C27.7787 167.209 26.9088 166.505 26.636 166.717L26.636 166.717H26.636Z" fill="#F2F2F2"/>
<path d="M31.4489 164.471L30.471 163.46L30.4628 163.333C30.4254 162.743 30.2665 162.261 29.9906 161.901C29.9467 161.843 29.8999 161.788 29.8523 161.732C29.6635 161.51 29.4287 161.233 29.3201 160.784C29.26 160.533 29.1623 159.919 29.5575 159.699C29.6631 159.639 29.769 159.627 29.8634 159.636C29.8615 159.617 29.8598 159.598 29.8579 159.577C29.8383 159.324 29.8699 159.184 29.9004 159.05C29.9238 158.947 29.9481 158.84 29.9521 158.629C29.9539 158.537 29.9509 158.459 29.9485 158.393C29.9415 158.195 29.9436 157.95 30.1566 157.79C30.3901 157.627 30.6521 157.722 30.8255 157.785C31.135 157.897 31.3208 158.007 31.4439 158.08C31.4888 158.106 31.5396 158.136 31.5587 158.143C31.7138 158.193 32.227 157.638 32.4213 157.43C32.8565 156.961 33.2331 156.555 33.6544 156.732C33.956 156.859 34.0914 157.23 34.0665 157.866C34.0586 158.064 34.022 158.238 33.9823 158.382C34.0973 158.369 34.2234 158.386 34.3394 158.477C34.6137 158.693 34.5907 159.14 34.2722 159.805C34.1935 159.971 34.0868 160.193 33.8751 160.424C33.7753 160.533 33.6754 160.618 33.5888 160.689C33.6265 160.741 33.6574 160.806 33.6703 160.887C33.7086 161.126 33.5798 161.354 33.2777 161.556C32.9489 161.784 32.642 161.924 32.3715 162.049C32.1356 162.158 31.9328 162.252 31.8041 162.366C31.5683 162.581 31.53 162.932 31.5042 163.368L31.4489 164.471H31.4489H31.4489Z" fill="#F2F2F2"/>
<path d="M26.9388 157.442L26.2098 158.644L26.0885 158.685C25.5274 158.87 25.1018 159.146 24.823 159.505C24.7786 159.562 24.7372 159.621 24.695 159.681C24.5278 159.92 24.3199 160.217 23.9125 160.437C23.6849 160.558 23.1164 160.808 22.8034 160.482C22.7183 160.395 22.6799 160.296 22.6647 160.202C22.6468 160.209 22.6286 160.215 22.6091 160.222C22.369 160.306 22.2261 160.31 22.0884 160.315C21.9825 160.319 21.8733 160.322 21.6681 160.372C21.5781 160.393 21.5036 160.416 21.4408 160.435C21.2508 160.492 21.0137 160.552 20.8047 160.387C20.5875 160.202 20.6131 159.925 20.63 159.741C20.66 159.413 20.719 159.206 20.7582 159.068C20.7726 159.018 20.7886 158.961 20.7901 158.941C20.7998 158.778 20.1321 158.423 19.8816 158.288C19.3175 157.986 18.8293 157.724 18.8942 157.272C18.9403 156.948 19.265 156.723 19.886 156.586C20.0794 156.543 20.257 156.534 20.4073 156.536C20.3647 156.428 20.3498 156.302 20.4085 156.166C20.548 155.846 20.9857 155.755 21.7101 155.895C21.8903 155.929 22.1323 155.976 22.4093 156.122C22.5397 156.191 22.647 156.266 22.7378 156.332C22.7792 156.282 22.8341 156.235 22.9094 156.202C23.1308 156.105 23.3833 156.172 23.6559 156.412C23.9595 156.673 24.1734 156.934 24.3624 157.164C24.5276 157.365 24.6704 157.537 24.8131 157.632C25.0804 157.806 25.4296 157.754 25.8587 157.668L26.9389 157.442L26.9389 157.442H26.9388Z" fill="#F2F2F2"/>
<path d="M23.8483 154.629L22.8704 153.618L22.8623 153.491C22.8248 152.901 22.6659 152.419 22.39 152.059C22.3462 152.001 22.2994 151.946 22.2518 151.89C22.0629 151.668 21.8282 151.391 21.7195 150.942C21.6595 150.691 21.5617 150.077 21.957 149.857C22.0626 149.797 22.1685 149.785 22.2628 149.794C22.2609 149.775 22.2593 149.756 22.2574 149.735C22.2377 149.482 22.2694 149.342 22.2999 149.208C22.3232 149.105 22.3475 148.998 22.3515 148.787C22.3533 148.695 22.3504 148.617 22.3479 148.551C22.341 148.353 22.343 148.108 22.556 147.948C22.7896 147.785 23.0515 147.88 23.225 147.943C23.5345 148.055 23.7202 148.165 23.8434 148.238C23.8883 148.264 23.939 148.294 23.9582 148.301C24.1133 148.351 24.6264 147.796 24.8208 147.588C25.2559 147.119 25.6325 146.713 26.0539 146.89C26.3555 147.017 26.4908 147.388 26.4659 148.024C26.458 148.222 26.4215 148.395 26.3817 148.54C26.4968 148.527 26.6229 148.544 26.7389 148.635C27.0132 148.851 26.9902 149.298 26.6717 149.963C26.5929 150.129 26.4862 150.351 26.2745 150.582C26.1747 150.691 26.0748 150.775 25.9883 150.847C26.026 150.899 26.0568 150.964 26.0697 151.045C26.1081 151.284 25.9793 151.512 25.6772 151.714C25.3483 151.942 25.0414 152.082 24.771 152.207C24.535 152.316 24.3322 152.41 24.2036 152.524C23.9678 152.739 23.9294 153.09 23.9036 153.526L23.8483 154.629H23.8483H23.8483Z" fill="#F2F2F2"/>
<path d="M41.5565 175.219L41.2126 175.253L40.9499 175.029L41.2126 175.253L40.9663 175.492C40.9427 175.471 40.8834 175.424 40.7916 175.351C40.2888 174.95 38.7581 173.73 36.6205 171.598C35.1284 170.11 33.6936 168.503 32.3551 166.822C31.0146 165.138 30.0994 163.786 29.3636 162.7C28.8088 161.88 28.2932 161.09 27.7914 160.32C26.4502 158.264 25.1831 156.321 23.51 154.379C23.1367 153.945 22.3592 153.043 21.0357 152.466C20.268 152.132 19.4303 151.955 18.546 151.943L18.5559 151.251C19.5325 151.266 20.4599 151.462 21.3123 151.833C22.7798 152.473 23.6269 153.456 24.034 153.928C25.7366 155.905 27.0157 157.866 28.3697 159.943C28.87 160.71 29.3831 161.497 29.9357 162.313C30.6646 163.389 31.5719 164.729 32.8953 166.391C34.2175 168.052 35.6349 169.639 37.1081 171.109C39.2188 173.214 40.7269 174.416 41.2223 174.811C41.4866 175.022 41.542 175.066 41.5565 175.219V175.219L41.5565 175.219Z" fill="#F2F2F2"/>
<path d="M18.2141 153.586C18.1917 153.603 18.1686 153.62 18.1444 153.636C17.6594 153.971 17.013 154.025 16.2231 153.798C15.8521 153.691 15.5424 153.481 14.9248 153.062C14.8295 152.997 14.3517 152.666 13.8009 152.127C13.4409 151.775 13.3205 151.605 13.2861 151.399C13.2475 151.169 13.3005 150.948 13.3996 150.749C13.3523 150.702 13.3162 150.644 13.2964 150.571C13.2135 150.272 13.4844 150.11 13.6295 150.021C13.7039 149.977 13.7972 149.923 13.8848 149.848C14.0231 149.73 14.0673 149.628 14.1347 149.473C14.1992 149.325 14.2793 149.142 14.4531 148.94C14.7944 148.541 15.2244 148.393 15.366 148.344C16.1095 148.084 16.7561 148.319 17.5047 148.591C17.6544 148.646 18.1855 148.856 18.7495 149.271C19.1564 149.571 19.2729 149.753 19.3379 149.906C19.4723 150.219 19.4289 150.491 19.2803 151.133C19.1259 151.804 19.048 152.14 18.9477 152.385C18.7135 152.956 18.5665 153.314 18.2141 153.586L18.2141 153.586Z" fill="#F2F2F2"/>
<path d="M40.8757 113.529L48.8703 126.762L95.4594 124.005L83.054 108.016L40.8757 113.529Z" fill="#F2F2F2"/>
<path d="M54.7966 175.418C54.5253 175.418 54.2889 175.218 54.2511 174.942L40.3294 73.2664C40.2881 72.9646 40.4992 72.6865 40.8008 72.6453C41.1024 72.6017 41.3805 72.8149 41.4219 73.1167L55.3435 174.792C55.3849 175.094 55.1738 175.372 54.8721 175.413C54.8467 175.417 54.8215 175.418 54.7966 175.418Z" fill="#F2F2F2"/>
<path d="M40.8757 175.548C40.5712 175.548 40.3243 175.301 40.3243 174.996V73.2113C40.3243 72.9068 40.5712 72.6599 40.8757 72.6599C41.1801 72.6599 41.427 72.9068 41.427 73.2113V174.996C41.427 175.301 41.1801 175.548 40.8757 175.548Z" fill="#F2F2F2"/>
<path d="M110.759 175.143C110.525 175.143 110.308 174.992 110.234 174.757L77.2903 70.049C77.1989 69.7586 77.3603 69.449 77.6508 69.3574C77.9411 69.2664 78.2508 69.4277 78.3421 69.7179L111.285 174.426C111.377 174.716 111.215 175.026 110.925 175.117C110.87 175.135 110.814 175.143 110.759 175.143Z" fill="#F2F2F2"/>
<path d="M100.697 175.272C100.451 175.272 100.226 175.106 100.163 174.857L77.2818 82.4447C77.2068 82.1496 77.3852 81.8494 77.6803 81.7743C77.9763 81.6997 78.2755 81.8777 78.3506 82.1727L101.232 174.585C101.307 174.88 101.128 175.18 100.833 175.255C100.788 175.267 100.742 175.272 100.697 175.272Z" fill="#F2F2F2"/>
<path d="M40.8757 74.8328L79.0567 74.2456L86.0865 114.356H41.427L40.8757 74.8328Z" fill="#F2F2F2"/>
<path d="M341.031 174.988H0V175.662H341.031V174.988Z" fill="#E6E6E6"/>
<path d="M69.9233 31.006C71.0802 31.6561 72.9472 29.0848 73.3703 30.3425C73.7934 31.6003 72.7686 36.6751 72.2399 37.8922C71.9772 38.4972 71.6057 39.0505 71.3478 39.6576C71.09 40.2647 70.9517 40.9627 71.1796 41.5817C71.5763 42.6588 72.8853 43.097 73.5344 44.0437C74.2903 45.1464 73.985 46.6315 73.6316 47.9209C73.327 49.0322 73.0024 50.1536 72.4161 51.1456C71.8297 52.1376 70.9457 53.0013 69.8411 53.3295C68.4348 53.7474 66.9317 53.2508 65.5759 52.6901C64.2724 52.1511 62.9829 51.54 61.8742 50.6679C60.7655 49.7958 59.8405 48.6383 59.453 47.282C58.9668 45.5807 59.373 43.7189 60.2147 42.1626C61.0563 40.6063 62.3014 39.3097 63.579 38.0856C65.7307 36.0239 68.0204 34.1064 70.4279 32.3502" fill="#2F2E41"/>
<path d="M77.1035 92.0796L107.974 103.773C107.974 103.773 110.547 106.346 111.014 110.789C111.482 115.233 120.135 140.49 120.135 140.49L112.652 143.297C112.652 143.297 100.023 123.886 100.724 115.934C100.724 115.934 99.321 112.185 98.6194 112.072C97.9178 111.958 87.3937 106.579 80.6115 107.281C73.8293 107.983 56.0553 110.088 55.5875 101.902C55.1198 93.7167 59.2217 93.7167 59.2217 93.7167L77.1035 92.0796V92.0796Z" fill="#2F2E41"/>
<path d="M118.498 138.386C118.498 138.386 120.603 137.684 122.006 139.087C123.41 140.491 123.41 141.66 123.41 141.66C123.41 141.66 134.401 141.426 134.869 142.829C135.337 144.233 133.7 149.845 129.724 150.079C125.748 150.313 112.184 153.12 112.184 150.547C112.184 147.974 112.418 142.128 113.353 142.128C114.289 142.128 118.498 138.386 118.498 138.386V138.386Z" fill="#2F2E41"/>
<path d="M79.7701 99.518L102.27 123.674C102.27 123.674 103.437 127.119 101.889 131.311C100.34 135.502 96.9128 161.98 96.9128 161.98L88.9601 161.182C88.9601 161.182 86.2335 138.185 90.384 131.367C90.384 131.367 90.7863 127.384 90.2074 126.971C89.6285 126.559 82.5748 117.076 76.1832 114.701C69.7916 112.327 52.9234 106.342 56.1291 98.7962C59.3347 91.25 63.0124 93.0666 63.0124 93.0666L79.7701 99.518V99.518Z" fill="#2F2E41"/>
<path d="M96.3771 159.368C96.3771 159.368 98.575 159.671 99.2117 161.55C99.8484 163.43 99.3305 164.478 99.3305 164.478C99.3305 164.478 109.289 169.136 109.087 170.602C108.885 172.067 104.932 176.374 101.263 174.823C97.5952 173.272 84.1907 169.781 85.3299 167.475C86.4692 165.168 89.2682 160.03 90.1069 160.444C90.9457 160.858 96.3771 159.368 96.3771 159.368H96.3771Z" fill="#2F2E41"/>
<path d="M59.2125 49.8665L66.6963 54.7777L75.1156 67.6405C75.1156 67.6405 76.9866 81.2049 76.2849 81.9065C75.5833 82.6081 75.8172 83.3097 75.8172 84.713C75.8172 86.1162 77.5353 86.2653 76.4424 87.477C75.3495 88.6887 74.4324 88.941 76.0603 89.3995C77.6882 89.8581 79.5794 89.4106 78.6338 90.8037C77.6882 92.1968 78.3898 92.6645 77.922 93.1322C77.4543 93.6 58.5207 113.596 55.0127 105.879C51.5046 98.161 51.261 68.576 51.261 68.576L53.7881 58.9383L59.2125 49.8665V49.8665Z" fill="#CCCCCC"/>
<path d="M36.154 104.965C35.3577 107.658 36.1017 110.251 37.8155 110.758C39.5293 111.264 41.5636 109.492 42.3598 106.798C42.6926 105.726 42.764 104.591 42.5678 103.486L45.7978 92.0335L40.3913 90.6323L37.7811 102.071C37.0154 102.892 36.4575 103.884 36.154 104.965V104.965Z" fill="#FFB6B6"/>
<path d="M66.9456 66.1304C66.9456 66.1304 58.229 59.4761 54.9108 63.6726C51.5927 67.8692 39.4376 86.4992 39.4376 86.4992L38.6319 93.5989L45.5255 95.1202L56.6676 78.7019L66.9456 66.1304V66.1304Z" fill="#CCCCCC"/>
<path d="M110.767 40.2701C112.766 38.2979 113.369 35.6678 112.114 34.3959C110.858 33.124 108.221 33.6919 106.221 35.6651C105.412 36.4424 104.8 37.4022 104.438 38.4642L96.0738 46.9276L100.129 50.7679L107.944 42.0168C109.011 41.6684 109.979 41.0695 110.767 40.2701V40.2701Z" fill="#FFB6B6"/>
<path d="M65.0386 59.3786C65.0386 59.3786 69.4519 69.4177 74.3853 67.3484C79.3187 65.279 98.9656 54.8472 98.9656 54.8472L103.103 49.0219L97.8043 44.3574L80.1134 53.3428L65.0386 59.3786V59.3786Z" fill="#CCCCCC"/>
<path d="M67.0337 47.8711C71.6695 47.8711 75.4276 44.113 75.4276 39.4772C75.4276 34.8413 71.6695 31.0833 67.0337 31.0833C62.3979 31.0833 58.6398 34.8413 58.6398 39.4772C58.6398 44.113 62.3979 47.8711 67.0337 47.8711Z" fill="#FFB6B6"/>
<path d="M57.5713 52.6228C59.5305 55.4175 60.5324 58.8705 60.3733 62.2799C62.5947 61.2038 64.0939 58.9304 64.6041 56.5155C65.1144 54.1006 64.7251 51.565 63.9052 49.237C63.897 49.2137 63.8887 49.1904 63.8804 49.1672C62.6355 45.6729 63.7923 41.7674 66.7992 39.5952C68.8275 38.13 70.5866 36.2919 71.9368 34.1848C72.699 32.9953 73.3469 31.5031 72.7774 30.2102C72.2528 29.0188 70.8973 28.4619 69.6499 28.0893C66.8017 27.2386 63.7754 26.7544 60.8519 27.2928C57.9284 27.8312 55.1141 29.5124 53.7325 32.1444C52.3508 34.7764 52.7127 38.3684 54.9554 40.3196C54.248 40.5483 53.7476 41.298 53.8077 42.0389C53.8677 42.7798 54.4824 43.4391 55.2174 43.5509C54.7379 43.5339 54.4548 44.1654 54.6258 44.6137C54.7968 45.062 55.2378 45.3404 55.6584 45.5712C56.2576 45.8998 56.9218 46.2435 56.9244 47.1042C56.9254 47.4494 56.8024 47.7843 56.6013 48.0648C56.1141 48.7445 55.3274 49.0506 54.5701 49.338C56.1718 49.8097 57.449 51.2413 57.7357 52.8863" fill="#2F2E41"/>
<path d="M127.248 50.3395C141.148 50.3395 152.416 39.0715 152.416 25.1717C152.416 11.2719 141.148 0.00390625 127.248 0.00390625C113.349 0.00390625 102.081 11.2719 102.081 25.1717C102.081 39.0715 113.349 50.3395 127.248 50.3395Z" fill="#F500DD"/>
<path d="M125.944 25.2907L123.541 39.5425L126.039 39.9637L128.442 25.7119L125.944 25.2907Z" fill="white"/>
<path d="M135.26 34.0761L126.673 28.5867L116.76 30.9568L129.707 10.5894L135.26 34.0761Z" fill="white"/>
<path d="M285.936 147.988C286.307 147.841 286.78 148.671 287.099 148.523C287.416 148.376 287.057 147.501 287.348 146.359C287.401 146.153 287.731 144.855 288.274 144.796C289.304 144.683 290.193 149.117 291.732 149.08C292.07 149.071 292.475 148.847 293.525 148.785C293.943 148.761 294.17 148.779 294.288 148.929C294.455 149.141 294.257 149.431 294.058 150.149C293.759 151.226 293.995 151.329 293.685 152.132C293.454 152.729 293.204 152.985 293.331 153.171C293.511 153.435 294.13 153.091 294.399 153.372C294.673 153.659 294.399 154.403 294.112 154.898C293.573 155.825 292.835 156.142 292.213 156.593C291.537 157.084 290.681 157.964 290.056 159.662L285.052 174.936C286.013 171.751 288.501 162.907 289.293 159.519C289.522 158.54 289.724 157.525 289.2 156.658C288.695 155.823 287.577 155.226 286.551 153.948C286.431 153.799 286.103 153.379 286.237 153.099C286.348 152.868 286.674 152.942 286.781 152.728C286.924 152.44 286.454 152.072 286.095 151.335C285.843 150.816 285.774 150.377 285.715 150C285.697 149.886 285.441 148.184 285.936 147.988V147.988V147.988Z" fill="#F2F2F2"/>
<path d="M297.802 167.227C297.981 167.367 297.71 167.838 297.875 167.952C298.039 168.066 298.365 167.637 299.009 167.45C299.125 167.417 299.857 167.204 300.043 167.454C300.396 167.927 298.476 169.643 298.939 170.387C299.04 170.55 299.267 170.684 299.6 171.182C299.733 171.38 299.789 171.497 299.75 171.598C299.694 171.741 299.495 171.728 299.085 171.837C298.47 172.001 298.488 172.146 298.004 172.226C297.645 172.285 297.446 172.236 297.392 172.352C297.315 172.517 297.662 172.721 297.601 172.934C297.54 173.152 297.095 173.232 296.77 173.234C296.159 173.237 295.791 172.966 295.39 172.791C294.954 172.601 294.275 172.435 293.261 172.618L284.321 174.569C286.161 174.121 291.22 172.791 293.111 172.202C293.658 172.032 294.214 171.838 294.489 171.331C294.753 170.842 294.723 170.121 295.054 169.249C295.093 169.147 295.204 168.865 295.38 168.85C295.526 168.837 295.583 169.019 295.72 169.01C295.902 168.997 295.947 168.66 296.205 168.271C296.387 167.997 296.583 167.837 296.751 167.699C296.802 167.658 297.563 167.041 297.802 167.227V167.227L297.802 167.227Z" fill="#F2F2F2"/>
<path d="M293.589 165.261L294.445 164.376L294.452 164.265C294.485 163.748 294.624 163.327 294.865 163.011C294.904 162.961 294.945 162.913 294.986 162.863C295.152 162.669 295.357 162.427 295.452 162.033C295.505 161.813 295.59 161.276 295.244 161.084C295.152 161.031 295.059 161.021 294.977 161.029C294.978 161.012 294.98 160.995 294.981 160.977C294.999 160.755 294.971 160.633 294.944 160.515C294.924 160.425 294.902 160.332 294.899 160.147C294.897 160.066 294.9 159.998 294.902 159.941C294.908 159.767 294.906 159.553 294.72 159.413C294.515 159.27 294.286 159.353 294.134 159.408C293.863 159.506 293.701 159.602 293.593 159.666C293.554 159.689 293.509 159.715 293.492 159.721C293.357 159.766 292.907 159.279 292.737 159.097C292.356 158.686 292.027 158.331 291.658 158.486C291.394 158.597 291.275 158.922 291.297 159.479C291.304 159.652 291.336 159.804 291.371 159.931C291.27 159.919 291.16 159.934 291.058 160.014C290.818 160.203 290.838 160.594 291.117 161.177C291.186 161.322 291.279 161.516 291.465 161.718C291.552 161.813 291.64 161.888 291.715 161.95C291.682 161.996 291.655 162.053 291.644 162.124C291.61 162.333 291.723 162.532 291.988 162.709C292.276 162.909 292.544 163.032 292.781 163.141C292.987 163.236 293.165 163.319 293.278 163.418C293.484 163.606 293.518 163.913 293.54 164.296L293.589 165.261H293.589H293.589Z" fill="#F2F2F2"/>
<path d="M297.537 159.108L298.175 160.161L298.281 160.196C298.772 160.359 299.145 160.6 299.389 160.914C299.428 160.964 299.464 161.016 299.501 161.068C299.647 161.278 299.829 161.538 300.186 161.73C300.385 161.836 300.883 162.055 301.157 161.769C301.231 161.693 301.265 161.606 301.278 161.524C301.294 161.53 301.31 161.536 301.327 161.542C301.537 161.615 301.662 161.619 301.783 161.623C301.875 161.626 301.971 161.629 302.151 161.673C302.23 161.692 302.295 161.712 302.35 161.728C302.516 161.778 302.724 161.831 302.907 161.686C303.097 161.525 303.074 161.282 303.059 161.121C303.033 160.834 302.982 160.652 302.947 160.532C302.935 160.488 302.921 160.438 302.919 160.421C302.911 160.278 303.495 159.967 303.715 159.848C304.208 159.584 304.636 159.355 304.579 158.959C304.539 158.676 304.254 158.479 303.711 158.359C303.541 158.321 303.386 158.314 303.254 158.315C303.292 158.221 303.305 158.11 303.253 157.992C303.131 157.711 302.748 157.632 302.114 157.754C301.956 157.784 301.744 157.825 301.502 157.953C301.388 158.013 301.294 158.079 301.214 158.136C301.178 158.093 301.13 158.052 301.064 158.023C300.87 157.938 300.649 157.996 300.411 158.207C300.145 158.435 299.958 158.664 299.792 158.865C299.648 159.04 299.523 159.191 299.398 159.275C299.164 159.427 298.858 159.382 298.482 159.306L297.537 159.108L297.537 159.108V159.108Z" fill="#F2F2F2"/>
<path d="M300.242 156.645L301.098 155.761L301.105 155.649C301.138 155.133 301.277 154.711 301.519 154.396C301.557 154.345 301.598 154.297 301.64 154.248C301.805 154.053 302.011 153.811 302.106 153.418C302.158 153.198 302.244 152.661 301.898 152.468C301.805 152.416 301.713 152.405 301.63 152.413C301.632 152.396 301.633 152.38 301.635 152.362C301.652 152.14 301.624 152.018 301.598 151.9C301.577 151.81 301.556 151.716 301.552 151.532C301.551 151.45 301.553 151.382 301.556 151.325C301.562 151.151 301.56 150.937 301.373 150.797C301.169 150.654 300.94 150.737 300.788 150.793C300.517 150.891 300.354 150.987 300.246 151.051C300.207 151.074 300.163 151.1 300.146 151.106C300.01 151.15 299.561 150.664 299.391 150.482C299.01 150.071 298.68 149.716 298.311 149.871C298.047 149.982 297.929 150.307 297.951 150.863C297.958 151.036 297.99 151.189 298.024 151.316C297.924 151.303 297.813 151.319 297.712 151.399C297.472 151.588 297.492 151.979 297.771 152.561C297.84 152.706 297.933 152.901 298.118 153.103C298.206 153.198 298.293 153.272 298.369 153.334C298.336 153.381 298.309 153.437 298.298 153.508C298.264 153.718 298.377 153.917 298.641 154.094C298.929 154.293 299.198 154.416 299.434 154.525C299.641 154.621 299.819 154.703 299.931 154.803C300.138 154.991 300.171 155.298 300.194 155.68L300.242 156.645Z" fill="#F2F2F2"/>
<path d="M284.74 174.671L285.041 174.7L285.271 174.504L285.041 174.7L285.257 174.91C285.278 174.891 285.33 174.85 285.41 174.786C285.85 174.435 287.19 173.367 289.061 171.501C290.368 170.198 291.624 168.791 292.795 167.319C293.969 165.845 294.77 164.662 295.414 163.711C295.9 162.994 296.351 162.302 296.79 161.628C297.964 159.828 299.074 158.127 300.538 156.427C300.865 156.047 301.546 155.258 302.704 154.752C303.376 154.46 304.11 154.305 304.884 154.294L304.875 153.689C304.02 153.702 303.208 153.873 302.462 154.198C301.178 154.758 300.436 155.619 300.08 156.033C298.589 157.763 297.469 159.48 296.284 161.298C295.846 161.969 295.397 162.658 294.913 163.372C294.275 164.314 293.481 165.487 292.322 166.942C291.165 168.397 289.924 169.786 288.635 171.073C286.787 172.915 285.467 173.967 285.033 174.313C284.802 174.498 284.753 174.536 284.74 174.671V174.671Z" fill="#F2F2F2"/>
<path d="M305.174 155.733C305.194 155.748 305.214 155.763 305.235 155.777C305.66 156.07 306.226 156.117 306.917 155.918C307.242 155.824 307.513 155.64 308.054 155.274C308.137 155.217 308.556 154.927 309.038 154.455C309.353 154.147 309.458 153.998 309.488 153.818C309.522 153.617 309.476 153.423 309.389 153.249C309.43 153.208 309.462 153.157 309.479 153.094C309.552 152.831 309.315 152.69 309.188 152.612C309.123 152.573 309.041 152.526 308.964 152.46C308.843 152.357 308.805 152.267 308.745 152.132C308.689 152.003 308.619 151.842 308.467 151.665C308.168 151.316 307.792 151.187 307.668 151.144C307.017 150.916 306.451 151.122 305.795 151.36C305.664 151.408 305.199 151.592 304.706 151.955C304.349 152.217 304.248 152.377 304.191 152.511C304.073 152.785 304.111 153.023 304.241 153.585C304.376 154.172 304.444 154.467 304.532 154.681C304.737 155.181 304.866 155.494 305.174 155.733V155.733Z" fill="#F2F2F2"/>
<path d="M206.976 171.601L201.651 170.368L203.872 149.24L211.731 151.06L206.976 171.601Z" fill="#A0616A"/>
<path d="M188.758 167.257C188.528 167.498 188.232 168.379 188.157 168.704C187.926 169.702 188.548 170.698 189.546 170.93L206.038 174.747C206.719 174.904 207.399 174.48 207.556 173.799L207.715 173.112C207.715 173.112 209.009 171.237 207.918 168.305C207.918 168.305 205.369 169.814 202.972 165.972L202.438 164.093L194.652 167.422L190.856 167.022C190.025 166.934 189.336 166.654 188.758 167.257L188.758 167.257V167.257Z" fill="#2F2E41"/>
<path d="M262.858 160.213L258.9 163.982L242.477 150.506L248.319 144.943L262.858 160.213Z" fill="#A0616A"/>
<path d="M249.211 173.038C249.285 173.363 249.858 174.095 250.088 174.336C250.794 175.078 251.969 175.107 252.711 174.401L264.97 162.727C265.476 162.245 265.496 161.444 265.013 160.937L264.527 160.427C264.527 160.427 263.673 158.315 260.624 157.614C260.624 157.614 260.482 160.572 255.955 160.461L254.092 159.874L252.589 168.207L250.168 171.157C249.638 171.803 249.024 172.224 249.211 173.038L249.211 173.038V173.038Z" fill="#2F2E41"/>
<path d="M285.336 120.667L278.338 132.25L237.554 129.837L248.413 115.84L285.336 120.667Z" fill="#F2F2F2"/>
<path d="M273.15 174.845C273.388 174.845 273.594 174.669 273.628 174.428L285.815 85.4207C285.851 85.1565 285.666 84.9131 285.402 84.877C285.138 84.8388 284.895 85.0255 284.858 85.2897L272.671 174.297C272.635 174.561 272.82 174.804 273.084 174.84C273.106 174.843 273.128 174.845 273.15 174.845Z" fill="#F2F2F2"/>
<path d="M285.336 174.958C285.603 174.958 285.819 174.741 285.819 174.475V85.3721C285.819 85.1055 285.603 84.8894 285.336 84.8894C285.07 84.8894 284.854 85.1055 284.854 85.3721V174.475C284.854 174.741 285.07 174.958 285.336 174.958Z" fill="#F2F2F2"/>
<path d="M224.16 174.603C224.365 174.603 224.556 174.471 224.62 174.265L253.459 82.6037C253.539 82.3495 253.398 82.0784 253.143 81.9983C252.889 81.9186 252.618 82.0598 252.538 82.3139L223.7 173.975C223.62 174.23 223.761 174.501 224.015 174.581C224.063 174.596 224.112 174.603 224.16 174.603Z" fill="#F2F2F2"/>
<path d="M232.969 174.717C233.184 174.717 233.381 174.571 233.436 174.353L253.466 93.4552C253.532 93.1969 253.376 92.9341 253.118 92.8684C252.858 92.8031 252.597 92.9589 252.531 93.2172L232.501 174.115C232.435 174.373 232.591 174.636 232.849 174.702C232.889 174.712 232.929 174.717 232.969 174.717H232.969Z" fill="#F2F2F2"/>
<path d="M285.336 86.7916L251.913 86.2776L245.759 121.391H284.854L285.336 86.7916Z" fill="#F2F2F2"/>
<path d="M272.493 110.277C272.493 110.277 278.306 124.695 267.556 127.984C256.807 131.272 241.315 135.918 241.315 135.918L259.126 153.157L250.345 158.768C250.345 158.768 217.953 136.582 217.953 131.272C217.953 125.963 244.499 112.208 244.499 112.208L259.126 106.982L272.493 110.277Z" fill="#2F2E41"/>
<path d="M238.656 106.982C238.656 106.982 208.815 109.173 206.567 114.974C204.318 120.775 199.83 150.763 199.83 150.763L215.515 153.545L220.195 127.984L263.134 112.703L238.656 106.982Z" fill="#2F2E41"/>
<path d="M222.734 74.0303L230.613 64.3975L239.316 70.1056C239.316 70.1056 272.114 91.4139 273.47 111.408C273.47 111.408 260.275 124.102 243.342 108.159L231.071 104.905L222.734 74.0303H222.734Z" fill="#CCCCCC"/>
<path d="M187.738 114.096C185.121 115.081 182.491 114.529 181.864 112.864C181.237 111.198 182.851 109.049 185.468 108.064C186.614 107.633 187.762 107.496 188.743 107.618L199.886 103.583L201.669 108.852L190.495 112.271C189.837 113.01 188.884 113.664 187.738 114.096H187.738Z" fill="#A0616A"/>
<path d="M225.364 74.867L222.734 74.0303L215.212 97.0131L189.49 106.449L191.132 112.784L220.382 105.804L231.672 94.7945L225.364 74.867Z" fill="#CCCCCC"/>
<path d="M220.558 67.1749C225.712 67.1749 229.889 62.9973 229.889 57.8439C229.889 52.6906 225.712 48.5129 220.558 48.5129C215.405 48.5129 211.227 52.6906 211.227 57.8439C211.227 62.9973 215.405 67.1749 220.558 67.1749Z" fill="#A0616A"/>
<path d="M229.8 50.812C229.8 50.812 227.372 42.9742 219.322 44.0211C219.322 44.0211 217.695 45.608 216.32 45.3611C214.946 45.1142 212.368 49.215 211.68 49.2064C210.991 49.1977 209.834 49.872 210.982 49.8865C212.13 49.9009 213.381 49.3426 211.781 50.241C210.182 51.1393 209.119 51.9297 210.262 52.4033C211.404 52.8769 211.622 51.6167 210.14 52.9758C208.657 54.3349 209.558 53.5426 210.238 54.24C210.919 54.9374 209.849 58.7381 209.849 58.7381C209.849 58.7381 209.759 55.8414 213.662 55.8904C217.565 55.9395 220.079 56.8896 221.241 55.7561C222.404 54.6226 224.11 56.3726 225.184 57.4736C226.258 58.5747 227.179 58.3567 227.179 58.3567L226.194 63.6257C226.194 63.6257 230.216 63.3399 230.472 61.2684C230.728 59.1968 229.722 57.0109 230.419 56.3308C231.117 55.6507 229.8 50.812 229.8 50.812V50.812Z" fill="#2F2E41"/>
<path d="M182.967 112.234C195.135 112.234 204.999 102.37 204.999 90.2021C204.999 78.0342 195.135 68.1702 182.967 68.1702C170.799 68.1702 160.935 78.0342 160.935 90.2021C160.935 102.37 170.799 112.234 182.967 112.234Z" fill="#F500DD"/>
<path d="M184.109 90.3066L181.922 90.6753L184.026 103.151L186.212 102.783L184.109 90.3066Z" fill="white"/>
<path d="M175.954 97.9973L183.471 93.1919L192.148 95.2667L180.814 77.437L175.954 97.9973Z" fill="white"/>
<path d="M189.446 101.564C186.649 101.566 184.381 100.124 184.38 98.3445C184.379 96.5648 186.646 95.1209 189.442 95.1194C190.667 95.1187 191.789 95.3946 192.665 95.8543L204.515 95.9965L204.33 101.556L192.668 100.826C191.793 101.286 190.67 101.563 189.446 101.564V101.564Z" fill="#A0616A"/>
<path d="M234.489 74.1328V74.1328C240.214 80.3897 240.917 89.7497 236.191 96.7915L226.702 105.472L196.276 102.585L196.918 95.4624L218.422 94.3057L234.489 74.1328Z" fill="#CCCCCC"/>
</g>
<defs>
<clipPath id="clip0_15_115">
<rect width="341.031" height="175.662" fill="white"/>
</clipPath>
</defs>
</svg>
