<svg width="100" height="149" viewBox="0 0 100 149" fill="none" xmlns="http://www.w3.org/2000/svg">
<path d="M34.9233 4.00602C36.0802 4.6561 37.9472 2.08482 38.3703 3.34254C38.7934 4.60026 37.7686 9.6751 37.2399 10.8922C36.9772 11.4972 36.6057 12.0505 36.3478 12.6576C36.09 13.2647 35.9517 13.9627 36.1796 14.5817C36.5763 15.6588 37.8853 16.097 38.5344 17.0437C39.2903 18.1464 38.985 19.6315 38.6316 20.9209C38.327 22.0322 38.0024 23.1536 37.4161 24.1456C36.8297 25.1376 35.9457 26.0013 34.8411 26.3295C33.4348 26.7474 31.9317 26.2508 30.5759 25.6901C29.2724 25.1511 27.9829 24.54 26.8742 23.6679C25.7655 22.7958 24.8405 21.6383 24.453 20.282C23.9668 18.5807 24.373 16.7189 25.2147 15.1626C26.0563 13.6063 27.3014 12.3097 28.579 11.0856C30.7307 9.02391 33.0204 7.10642 35.4279 5.35023" fill="#2F2E41"/>
<path d="M42.1035 65.0796L72.9742 76.773C72.9742 76.773 75.5467 79.3456 76.0145 83.7891C76.4822 88.2326 85.1354 113.49 85.1354 113.49L77.6516 116.297C77.6516 116.297 65.0226 96.8858 65.7242 88.9342C65.7242 88.9342 64.321 85.185 63.6194 85.0717C62.9178 84.9585 52.3937 79.5795 45.6115 80.2811C38.8293 80.9827 21.0553 83.0875 20.5875 74.9021C20.1198 66.7167 24.2217 66.7167 24.2217 66.7167L42.1035 65.0796Z" fill="#2F2E41"/>
<path d="M83.4983 111.386C83.4983 111.386 85.6031 110.684 87.0063 112.087C88.4096 113.491 88.4096 114.66 88.4096 114.66C88.4096 114.66 99.4014 114.426 99.8691 115.829C100.337 117.233 98.6998 122.845 94.724 123.079C90.7482 123.313 77.1838 126.12 77.1838 123.547C77.1838 120.974 77.4177 115.128 78.3532 115.128C79.2887 115.128 83.4983 111.386 83.4983 111.386Z" fill="#2F2E41"/>
<path d="M44.7701 72.518L67.2699 96.6736C67.2699 96.6736 68.4372 100.119 66.8887 104.311C65.3402 108.502 61.9128 134.98 61.9128 134.98L53.9601 134.182C53.9601 134.182 51.2335 111.185 55.384 104.367C55.384 104.367 55.7863 100.384 55.2074 99.9713C54.6285 99.559 47.5748 90.0756 41.1832 87.701C34.7916 85.3265 17.9234 79.3423 21.1291 71.7962C24.3347 64.25 28.0124 66.0666 28.0124 66.0666L44.7701 72.518V72.518Z" fill="#2F2E41"/>
<path d="M61.3771 132.368C61.3771 132.368 63.575 132.671 64.2117 134.55C64.8484 136.43 64.3305 137.478 64.3305 137.478C64.3305 137.478 74.2893 142.136 74.0872 143.602C73.8852 145.067 69.9317 149.374 66.2634 147.823C62.5952 146.272 49.1907 142.781 50.3299 140.475C51.4692 138.168 54.2682 133.03 55.1069 133.444C55.9457 133.858 61.3771 132.368 61.3771 132.368H61.3771Z" fill="#2F2E41"/>
<path d="M24.2125 22.8665L31.6963 27.7777L40.1156 40.6405C40.1156 40.6405 41.9866 54.2049 41.2849 54.9065C40.5833 55.6081 40.8172 56.3097 40.8172 57.713C40.8172 59.1162 42.5353 59.2653 41.4424 60.477C40.3495 61.6887 39.4324 61.941 41.0603 62.3995C42.6882 62.8581 44.5794 62.4106 43.6338 63.8037C42.6882 65.1968 43.3898 65.6645 42.922 66.1322C42.4543 66.6 23.5207 86.5963 20.0127 78.8787C16.5046 71.161 16.261 41.576 16.261 41.576L18.7881 31.9383L24.2125 22.8665V22.8665Z" fill="#CCCCCC"/>
<path d="M1.15403 77.9649C0.35772 80.6577 1.10166 83.2514 2.81546 83.7579C4.52927 84.2644 6.56358 82.492 7.35982 79.7982C7.69264 78.7264 7.76397 77.5906 7.56782 76.4856L10.7978 65.0335L5.39129 63.6323L2.78114 75.0709C2.01543 75.8918 1.45749 76.8841 1.15403 77.9649Z" fill="#FFB6B6"/>
<path d="M31.9456 39.1305C31.9456 39.1305 23.229 32.4761 19.9108 36.6726C16.5927 40.8692 4.43765 59.4992 4.43765 59.4992L3.63187 66.5989L10.5255 68.1202L21.6676 51.7019L31.9456 39.1305Z" fill="#CCCCCC"/>
<path d="M75.7674 13.2701C77.7663 11.2979 78.3689 8.66782 77.1136 7.3959C75.8582 6.12399 73.2206 6.69192 71.2213 8.66512C70.4118 9.44238 69.8002 10.4022 69.4377 11.4642L61.0738 19.9276L65.1291 23.7679L72.9439 15.0168C74.0111 14.6684 74.9792 14.0695 75.7674 13.2701Z" fill="#FFB6B6"/>
<path d="M30.0386 32.3786C30.0386 32.3786 34.4519 42.4177 39.3853 40.3484C44.3187 38.279 63.9656 27.8472 63.9656 27.8472L68.1033 22.0219L62.8043 17.3574L45.1134 26.3428L30.0386 32.3786V32.3786Z" fill="#CCCCCC"/>
<path d="M32.0337 20.8711C36.6695 20.8711 40.4276 17.113 40.4276 12.4772C40.4276 7.84134 36.6695 4.08325 32.0337 4.08325C27.3979 4.08325 23.6398 7.84134 23.6398 12.4772C23.6398 17.113 27.3979 20.8711 32.0337 20.8711Z" fill="#FFB6B6"/>
<path d="M22.5713 25.6228C24.5305 28.4175 25.5324 31.8705 25.3733 35.2799C27.5947 34.2038 29.0939 31.9304 29.6041 29.5155C30.1144 27.1006 29.7251 24.565 28.9052 22.237C28.897 22.2137 28.8887 22.1904 28.8804 22.1672C27.6355 18.6729 28.7923 14.7674 31.7992 12.5952C33.8275 11.13 35.5866 9.29187 36.9368 7.18481C37.699 5.99529 38.3469 4.50311 37.7774 3.21017C37.2528 2.01877 35.8973 1.46192 34.6499 1.08934C31.8017 0.238557 28.7754 -0.245552 25.8519 0.292799C22.9284 0.83115 20.1141 2.51236 18.7325 5.14436C17.3508 7.77636 17.7127 11.3684 19.9554 13.3196C19.248 13.5483 18.7476 14.298 18.8077 15.0389C18.8677 15.7798 19.4824 16.4391 20.2174 16.5509C19.7379 16.5339 19.4548 17.1654 19.6258 17.6137C19.7968 18.062 20.2378 18.3404 20.6584 18.5712C21.2576 18.8998 21.9218 19.2435 21.9244 20.1042C21.9254 20.4494 21.8024 20.7843 21.6013 21.0648C21.1141 21.7445 20.3274 22.0506 19.5701 22.338C21.1718 22.8097 22.449 24.2413 22.7357 25.8863" fill="#2F2E41"/>
</svg>
