<svg width="176" height="60" viewBox="0 0 176 60" fill="none" xmlns="http://www.w3.org/2000/svg">
<path d="M30 40C35.5228 40 40 35.5228 40 30C40 24.4772 35.5228 20 30 20C24.4772 20 20 24.4772 20 30C20 35.5228 24.4772 40 30 40Z" fill="#19BCFE"/>
<path fill-rule="evenodd" clip-rule="evenodd" d="M10 60C15.5228 60 20 55.5228 20 50C20 48.4924 20 45.159 20 40C15.5076 40 12.1743 40 10 40C4.47715 40 0 44.4772 0 50C0 55.5228 4.47715 60 10 60Z" fill="#09CF83"/>
<path fill-rule="evenodd" clip-rule="evenodd" d="M10 40C11.8409 40 15.1743 40 20 40V20C15.1743 20 11.8409 20 10 20C4.47715 20 0 24.4772 0 30C0 35.5228 4.47715 40 10 40Z" fill="#A259FF"/>
<path fill-rule="evenodd" clip-rule="evenodd" d="M10 20C11.8409 20 15.1743 20 20 20V0C15.1743 0 11.8409 0 10 0C4.47715 0 0 4.47715 0 10C0 15.5228 4.47715 20 10 20Z" fill="#F24E1E"/>
<path fill-rule="evenodd" clip-rule="evenodd" d="M30 20H20V0H30C35.5228 0 40 4.47715 40 10C40 15.5228 35.5228 20 30 20Z" fill="#FF7262"/>
<path d="M77.0434 17.728V22.66H66.7474V27.988H74.4514V32.776H66.7474V43H60.5914V17.728H77.0434ZM83.3749 20.824C82.2949 20.824 81.4069 20.512 80.7109 19.888C80.0389 19.24 79.7029 18.448 79.7029 17.512C79.7029 16.552 80.0389 15.76 80.7109 15.136C81.4069 14.488 82.2949 14.164 83.3749 14.164C84.4309 14.164 85.2949 14.488 85.9669 15.136C86.6629 15.76 87.0109 16.552 87.0109 17.512C87.0109 18.448 86.6629 19.24 85.9669 19.888C85.2949 20.512 84.4309 20.824 83.3749 20.824ZM86.4349 22.912V43H80.2789V22.912H86.4349ZM98.5281 22.624C99.9441 22.624 101.18 22.912 102.236 23.488C103.316 24.064 104.144 24.82 104.72 25.756V22.912H110.876V42.964C110.876 44.812 110.504 46.48 109.76 47.968C109.04 49.48 107.924 50.68 106.412 51.568C104.924 52.456 103.064 52.9 100.832 52.9C97.8561 52.9 95.4441 52.192 93.5961 50.776C91.7481 49.384 90.6921 47.488 90.4281 45.088H96.5121C96.7041 45.856 97.1601 46.456 97.8801 46.888C98.6001 47.344 99.4881 47.572 100.544 47.572C101.816 47.572 102.824 47.2 103.568 46.456C104.336 45.736 104.72 44.572 104.72 42.964V40.12C104.12 41.056 103.292 41.824 102.236 42.424C101.18 43 99.9441 43.288 98.5281 43.288C96.8721 43.288 95.3721 42.868 94.0281 42.028C92.6841 41.164 91.6161 39.952 90.8241 38.392C90.0561 36.808 89.6721 34.984 89.6721 32.92C89.6721 30.856 90.0561 29.044 90.8241 27.484C91.6161 25.924 92.6841 24.724 94.0281 23.884C95.3721 23.044 96.8721 22.624 98.5281 22.624ZM104.72 32.956C104.72 31.42 104.288 30.208 103.424 29.32C102.584 28.432 101.552 27.988 100.328 27.988C99.1041 27.988 98.0601 28.432 97.1961 29.32C96.3561 30.184 95.9361 31.384 95.9361 32.92C95.9361 34.456 96.3561 35.68 97.1961 36.592C98.0601 37.48 99.1041 37.924 100.328 37.924C101.552 37.924 102.584 37.48 103.424 36.592C104.288 35.704 104.72 34.492 104.72 32.956ZM140.962 22.696C143.458 22.696 145.438 23.452 146.902 24.964C148.39 26.476 149.134 28.576 149.134 31.264V43H143.014V32.092C143.014 30.796 142.666 29.8 141.97 29.104C141.298 28.384 140.362 28.024 139.162 28.024C137.962 28.024 137.014 28.384 136.318 29.104C135.646 29.8 135.31 30.796 135.31 32.092V43H129.19V32.092C129.19 30.796 128.842 29.8 128.146 29.104C127.474 28.384 126.538 28.024 125.338 28.024C124.138 28.024 123.19 28.384 122.494 29.104C121.822 29.8 121.486 30.796 121.486 32.092V43H115.33V22.912H121.486V25.432C122.11 24.592 122.926 23.932 123.934 23.452C124.942 22.948 126.082 22.696 127.354 22.696C128.866 22.696 130.21 23.02 131.386 23.668C132.586 24.316 133.522 25.24 134.194 26.44C134.89 25.336 135.838 24.436 137.038 23.74C138.238 23.044 139.546 22.696 140.962 22.696ZM152.215 32.92C152.215 30.856 152.599 29.044 153.367 27.484C154.159 25.924 155.227 24.724 156.571 23.884C157.915 23.044 159.415 22.624 161.071 22.624C162.487 22.624 163.723 22.912 164.779 23.488C165.859 24.064 166.687 24.82 167.263 25.756V22.912H173.419V43H167.263V40.156C166.663 41.092 165.823 41.848 164.743 42.424C163.687 43 162.451 43.288 161.035 43.288C159.403 43.288 157.915 42.868 156.571 42.028C155.227 41.164 154.159 39.952 153.367 38.392C152.599 36.808 152.215 34.984 152.215 32.92ZM167.263 32.956C167.263 31.42 166.831 30.208 165.967 29.32C165.127 28.432 164.095 27.988 162.871 27.988C161.647 27.988 160.603 28.432 159.739 29.32C158.899 30.184 158.479 31.384 158.479 32.92C158.479 34.456 158.899 35.68 159.739 36.592C160.603 37.48 161.647 37.924 162.871 37.924C164.095 37.924 165.127 37.48 165.967 36.592C166.831 35.704 167.263 34.492 167.263 32.956Z" fill="#3C3434"/>
</svg>
