<svg width="36" height="36" viewBox="0 0 36 36" fill="none" xmlns="http://www.w3.org/2000/svg">
<g clip-path="url(#clip0_6_42)">
<path d="M7.8993 14.6468C9.29818 10.4079 13.2817 7.36364 18 7.36364C20.5364 7.36364 22.8273 8.26364 24.6273 9.73636L29.8636 4.5C26.6727 1.71818 22.5818 0 18 0C10.9051 0 4.79662 4.04745 1.85999 9.97504L7.8993 14.6468Z" fill="#EA4335"/>
<path d="M24.0611 27.0188C22.4264 28.0743 20.3491 28.6362 18 28.6362C13.2997 28.6362 9.32869 25.6152 7.91548 21.4017L1.8562 26.0024C4.78919 31.9403 10.8975 35.9999 18 35.9999C22.3993 35.9999 26.603 34.436 29.7513 31.4993L24.0611 27.0188Z" fill="#34A853"/>
<path d="M29.7513 31.4995C33.0438 28.4283 35.1818 23.8556 35.1818 18.0001C35.1818 16.9365 35.0182 15.791 34.7727 14.7274H18V21.6819H27.6545C27.1782 24.0205 25.8994 25.8319 24.0611 27.019L29.7513 31.4995Z" fill="#4A90E2"/>
<path d="M7.91547 21.4017C7.55749 20.3344 7.36364 19.1905 7.36364 17.9999C7.36364 16.8273 7.55165 15.7001 7.8993 14.6467L1.85999 9.97493C0.654881 12.3905 0 15.113 0 17.9999C0 20.8792 0.667171 23.5952 1.85619 26.0024L7.91547 21.4017Z" fill="#FBBC05"/>
</g>
<defs>
<clipPath id="clip0_6_42">
<rect width="36" height="36" fill="white"/>
</clipPath>
</defs>
</svg>
