<svg width="191" height="49" viewBox="0 0 191 49" fill="none" xmlns="http://www.w3.org/2000/svg">
<path d="M24.6774 42.0006C14.8952 42.0006 7.23746 34.1095 7.23746 24.3272C7.23746 14.545 14.8952 6.6538 24.6774 6.6538C29.9538 6.6538 33.806 8.73165 36.6543 11.3932L41.3469 6.70049C37.378 2.89499 32.0783 0 24.6774 0C11.2764 0 0 10.9262 0 24.3272C0 37.7282 11.2764 48.6544 24.6774 48.6544C31.9149 48.6544 37.378 46.2731 41.6504 41.8372C46.0396 37.4481 47.3937 31.2845 47.3937 26.2883C47.3937 24.7241 47.207 23.1132 46.9968 21.9225H24.6774V28.4129H40.5765C40.1096 32.4752 38.8255 35.2535 36.9344 37.1445C34.6464 39.4559 31.0277 42.0006 24.6774 42.0006Z" fill="#3686F7"/>
<path d="M81.5849 24.3389C81.5849 33.3274 74.5809 39.9345 65.9893 39.9345C57.3977 39.9345 50.3937 33.304 50.3937 24.3389C50.3937 15.3037 57.3977 8.71997 65.9893 8.71997C74.5809 8.71997 81.5849 15.3037 81.5849 24.3389ZM74.7677 24.3389C74.7677 18.7357 70.7053 14.8835 65.9893 14.8835C61.2733 14.8835 57.211 18.7357 57.211 24.3389C57.211 29.8954 61.2733 33.7943 65.9893 33.7943C70.7053 33.7943 74.7677 29.8954 74.7677 24.3389Z" fill="#FF302F"/>
<path d="M115.776 24.3273C115.776 33.3157 108.772 39.9228 100.18 39.9228C91.5889 39.9228 84.5849 33.3157 84.5849 24.3273C84.5849 15.2921 91.5889 8.73169 100.18 8.73169C108.772 8.73169 115.776 15.2688 115.776 24.3273ZM108.935 24.3273C108.935 18.7241 104.873 14.8719 100.157 14.8719C95.4411 14.8719 91.3787 18.7241 91.3787 24.3273C91.3787 29.8838 95.4411 33.7827 100.157 33.7827C104.896 33.7827 108.935 29.8604 108.935 24.3273Z" fill="#FFBA40"/>
<path d="M142.169 2.95344H148.66V30.6893C148.66 42.1992 141.866 46.9385 133.835 46.9385C126.27 46.9385 121.718 41.849 120.013 37.7166L125.967 35.2419C127.041 37.7867 129.632 40.7984 133.835 40.7984C138.994 40.7984 142.169 37.5999 142.169 31.6231V29.3819H141.936C140.395 31.2496 137.453 32.9305 133.718 32.9305C125.92 32.9305 118.776 26.1367 118.776 17.3817C118.776 8.57998 125.92 1.71606 133.718 1.71606C137.43 1.71606 140.395 3.37368 141.936 5.19472H142.169V2.95344ZM142.636 17.3817C142.636 11.8719 138.971 7.85624 134.302 7.85624C129.586 7.85624 125.617 11.8719 125.617 17.3817C125.617 22.8214 129.586 26.767 134.302 26.767C138.971 26.7904 142.636 22.8214 142.636 17.3817Z" fill="#3686F7"/>
<path d="M151.66 1.49414H158.384V47.1602H151.66V1.49414Z" fill="#20B15A"/>
<path d="M184.543 29.4635L189.867 33.0122C188.139 35.557 184.007 39.9228 176.862 39.9228C167.991 39.9228 161.384 33.0589 161.384 24.3273C161.384 15.0353 168.061 8.73169 176.115 8.73169C184.217 8.73169 188.186 15.1754 189.47 18.654L190.17 20.4284L169.298 29.0666C170.886 32.1951 173.36 33.7827 176.862 33.7827C180.364 33.7827 182.792 32.055 184.543 29.4635ZM168.177 23.837L182.115 18.047C181.345 16.1092 179.057 14.7318 176.325 14.7318C172.847 14.7318 168.014 17.8135 168.177 23.837Z" fill="#FF302F"/>
</svg>
