<svg width="197" height="57" viewBox="0 0 197 57" fill="none" xmlns="http://www.w3.org/2000/svg">
<path d="M0 9.54858H6.86711V24.8053H21.3503V9.54858H28.2262V46.9992H21.3503V31.422H6.86711V46.9992H0V9.54858Z" fill="#45535E"/>
<path d="M46.1152 30.2368C46.1152 33.3719 43.561 35.923 40.4267 35.923C37.2913 35.923 34.7386 33.3719 34.7386 30.2368V14.113H28.2262V30.2368C28.2262 36.9635 33.6996 42.435 40.4267 42.435C47.1523 42.435 52.6254 36.9635 52.6254 30.2368V14.113H46.1152V30.2368Z" fill="#45535E"/>
<path d="M66.822 18.866C63.5915 18.866 61.3366 19.8035 59.159 21.9411V9.54858H52.6254V32.5152C52.6254 41.1118 58.8408 46.9992 65.8237 46.9992C73.5867 46.9992 80.3885 41.0068 80.3885 32.933C80.3885 24.9615 74.1164 18.866 66.822 18.866ZM66.9843 40.9549C62.5571 40.9549 59.1717 37.2574 59.1717 32.933C59.1717 28.6078 62.5571 24.9092 66.9843 24.9092C70.7356 24.9092 74.123 28.6078 74.123 32.933C74.123 37.2574 70.7356 40.9549 66.9843 40.9549Z" fill="#45535E"/>
<path d="M88.2037 20.5121C88.2037 17.2278 90.3921 16.1865 92.7878 16.1865C94.7166 16.1865 97.2688 17.6451 98.9345 19.4169L103.205 14.4158C101.071 11.5508 96.7476 9.57056 93.2048 9.57056C86.1188 9.57056 81.0131 13.6865 81.0131 20.5121C81.0131 33.1715 96.5911 29.1587 96.5911 36.2458C96.5911 38.4315 94.4558 40.361 92.0085 40.361C88.1518 40.361 86.9009 38.4853 85.1302 36.5051L80.3884 41.4015C83.4119 45.1009 87.1617 46.9773 91.6427 46.9773C98.3628 46.9773 103.781 42.8094 103.781 36.2962C103.781 22.2304 88.2037 26.6072 88.2037 20.5121Z" fill="#45535E"/>
<path d="M116.98 9.51978C109.998 9.51978 103.781 15.4037 103.781 24.0022V47.0281H110.315V34.5767C112.493 36.7128 114.746 37.6518 117.978 37.6518C125.272 37.6518 131.545 31.5571 131.545 23.5856C131.545 15.5106 124.741 9.51978 116.98 9.51978ZM118.141 31.6094C113.714 31.6094 110.328 27.9069 110.328 23.5856C110.328 19.2604 113.714 15.5618 118.141 15.5618C121.891 15.5618 125.279 19.2604 125.279 23.5856C125.279 27.9069 121.891 31.6094 118.141 31.6094Z" fill="#45535E"/>
<path d="M180.589 26.861C179.337 24.7061 177.575 22.9786 175.372 21.678C173.726 20.7198 172.02 20.1116 170.096 19.8504V13.0033C172.02 12.1867 173.213 10.3791 173.213 8.27038C173.213 5.39613 170.908 3.06696 168.036 3.06696C165.162 3.06696 162.817 5.39613 162.817 8.27038C162.817 10.3791 163.942 12.1867 165.865 13.0033V19.8535C164.326 20.0759 162.731 20.5555 161.274 21.2926C158.297 19.0323 148.538 11.617 142.829 7.28601C142.965 6.79787 143.069 6.29472 143.069 5.76388C143.069 2.58036 140.491 0 137.306 0C134.122 0 131.545 2.58036 131.545 5.76388C131.545 8.94701 134.124 11.5281 137.309 11.5281C138.395 11.5281 139.4 11.2104 140.267 10.688L141.472 11.602L158.027 23.5298C157.151 24.3334 156.336 25.2473 155.684 26.2729C154.363 28.3636 153.556 30.6639 153.556 33.1731V33.6966C153.556 35.458 153.89 37.1209 154.46 38.6831C154.962 40.0471 155.696 41.2873 156.605 42.4086L151.111 47.9163C150.624 47.7366 150.112 47.6381 149.577 47.6381C148.388 47.6381 147.272 48.1028 146.431 48.9426C145.589 49.7846 145.128 50.9028 145.128 52.093C145.128 53.2828 145.592 54.401 146.433 55.2423C147.275 56.0839 148.393 56.5478 149.583 56.5478C150.773 56.5478 151.892 56.0839 152.734 55.2423C153.574 54.401 154.038 53.2824 154.038 52.093C154.038 51.6325 153.967 51.1833 153.833 50.7563L159.512 45.0766C160.29 45.6144 161.131 46.0672 162.035 46.4576C163.818 47.2285 165.786 47.6982 167.94 47.6982H168.335C170.716 47.6982 172.962 47.1388 175.073 45.9948C177.298 44.7858 179.039 43.1325 180.355 41.0218C181.678 38.9054 182.406 36.567 182.406 33.9943V33.8659C182.406 31.3351 181.82 29.0002 180.589 26.861ZM173.651 38.7754C172.109 40.4883 170.337 41.5435 168.335 41.5435H168.004C166.86 41.5435 165.741 41.2273 164.646 40.6522C163.411 40.019 162.473 39.1158 161.704 37.9722C160.91 36.8497 160.48 35.6242 160.48 34.3248V33.9301C160.48 32.6526 160.725 31.4413 161.342 30.2973C162.003 29.0467 162.895 28.0743 164.081 27.3011C165.246 26.5333 166.49 26.1567 167.876 26.1567H168.004C169.261 26.1567 170.45 26.4044 171.573 26.9787C172.716 27.5911 173.651 28.4278 174.375 29.5283C175.079 30.6292 175.497 31.8167 175.632 33.1104C175.653 33.3792 175.664 33.6547 175.664 33.9178C175.664 35.6734 174.993 37.2994 173.651 38.7754Z" fill="#F8761F"/>
<path d="M193.968 39.6567C190.114 39.6567 189.02 37.9903 189.02 35.4365V24.1318H195.01V18.4018H189.02V10.8469L182.406 13.8158V36.8432C182.406 42.731 186.468 45.701 192.04 45.701C192.873 45.701 194.021 45.6471 194.647 45.4929L196.262 39.5544C195.533 39.6048 194.699 39.6567 193.968 39.6567Z" fill="#45535E"/>
</svg>
