<svg width="179" height="58" viewBox="0 0 179 58" fill="none" xmlns="http://www.w3.org/2000/svg">
<path d="M12.1857 36.6514C12.1857 40.0048 9.44626 42.7443 6.09283 42.7443C2.73941 42.7443 0 40.0048 0 36.6514C0 33.298 2.73941 30.5586 6.09283 30.5586H12.1857V36.6514Z" fill="#E01E5A"/>
<path d="M15.2557 36.6514C15.2557 33.298 17.9952 30.5586 21.3486 30.5586C24.702 30.5586 27.4414 33.298 27.4414 36.6514V51.9071C27.4414 55.2605 24.702 58 21.3486 58C17.9952 58 15.2557 55.2605 15.2557 51.9071V36.6514Z" fill="#E01E5A"/>
<path d="M21.3486 12.1857C17.9952 12.1857 15.2557 9.44626 15.2557 6.09283C15.2557 2.73941 17.9952 0 21.3486 0C24.702 0 27.4414 2.73941 27.4414 6.09283V12.1857H21.3486Z" fill="#36C5F0"/>
<path d="M21.3485 15.2556C24.702 15.2556 27.4414 17.995 27.4414 21.3484C27.4414 24.7019 24.702 27.4413 21.3485 27.4413H6.09283C2.73941 27.4413 0 24.7019 0 21.3484C0 17.995 2.73941 15.2556 6.09283 15.2556H21.3485Z" fill="#36C5F0"/>
<path d="M45.8143 21.3484C45.8143 17.995 48.5537 15.2556 51.9072 15.2556C55.2606 15.2556 58 17.995 58 21.3484C58 24.7019 55.2606 27.4413 51.9072 27.4413H45.8143V21.3484Z" fill="#2EB67D"/>
<path d="M42.7444 21.3485C42.7444 24.702 40.005 27.4414 36.6515 27.4414C33.2981 27.4414 30.5587 24.702 30.5587 21.3485V6.09283C30.5587 2.73941 33.2981 0 36.6515 0C40.005 0 42.7444 2.73941 42.7444 6.09283V21.3485Z" fill="#2EB67D"/>
<path d="M36.6515 45.8142C40.005 45.8142 42.7444 48.5536 42.7444 51.907C42.7444 55.2605 40.005 57.9999 36.6515 57.9999C33.2981 57.9999 30.5587 55.2605 30.5587 51.907V45.8142H36.6515Z" fill="#ECB22E"/>
<path d="M36.6515 42.7443C33.2981 42.7443 30.5587 40.0048 30.5587 36.6514C30.5587 33.298 33.2981 30.5586 36.6515 30.5586H51.9072C55.2607 30.5586 58.0001 33.298 58.0001 36.6514C58.0001 40.0048 55.2607 42.7443 51.9072 42.7443H36.6515Z" fill="#ECB22E"/>
<path d="M88.751 42.252C86.903 42.252 85.247 41.952 83.783 41.352C82.319 40.752 81.143 39.864 80.255 38.688C79.391 37.512 78.935 36.096 78.887 34.44H85.439C85.535 35.376 85.859 36.096 86.411 36.6C86.963 37.08 87.683 37.32 88.571 37.32C89.483 37.32 90.203 37.116 90.731 36.708C91.259 36.276 91.523 35.688 91.523 34.944C91.523 34.32 91.307 33.804 90.875 33.396C90.467 32.988 89.951 32.652 89.327 32.388C88.727 32.124 87.863 31.824 86.735 31.488C85.103 30.984 83.771 30.48 82.739 29.976C81.707 29.472 80.819 28.728 80.075 27.744C79.331 26.76 78.959 25.476 78.959 23.892C78.959 21.54 79.811 19.704 81.515 18.384C83.219 17.04 85.439 16.368 88.175 16.368C90.959 16.368 93.203 17.04 94.907 18.384C96.611 19.704 97.523 21.552 97.643 23.928H90.983C90.935 23.112 90.635 22.476 90.083 22.02C89.531 21.54 88.823 21.3 87.959 21.3C87.215 21.3 86.615 21.504 86.159 21.912C85.703 22.296 85.475 22.86 85.475 23.604C85.475 24.42 85.859 25.056 86.627 25.512C87.395 25.968 88.595 26.46 90.227 26.988C91.859 27.54 93.179 28.068 94.187 28.572C95.219 29.076 96.107 29.808 96.851 30.768C97.595 31.728 97.967 32.964 97.967 34.476C97.967 35.916 97.595 37.224 96.851 38.4C96.131 39.576 95.075 40.512 93.683 41.208C92.291 41.904 90.647 42.252 88.751 42.252ZM107.911 15.36V42H101.755V15.36H107.911ZM111.149 31.92C111.149 29.856 111.533 28.044 112.301 26.484C113.093 24.924 114.161 23.724 115.505 22.884C116.849 22.044 118.349 21.624 120.005 21.624C121.421 21.624 122.657 21.912 123.713 22.488C124.793 23.064 125.621 23.82 126.197 24.756V21.912H132.353V42H126.197V39.156C125.597 40.092 124.757 40.848 123.677 41.424C122.621 42 121.385 42.288 119.969 42.288C118.337 42.288 116.849 41.868 115.505 41.028C114.161 40.164 113.093 38.952 112.301 37.392C111.533 35.808 111.149 33.984 111.149 31.92ZM126.197 31.956C126.197 30.42 125.765 29.208 124.901 28.32C124.061 27.432 123.029 26.988 121.805 26.988C120.581 26.988 119.537 27.432 118.673 28.32C117.833 29.184 117.413 30.384 117.413 31.92C117.413 33.456 117.833 34.68 118.673 35.592C119.537 36.48 120.581 36.924 121.805 36.924C123.029 36.924 124.061 36.48 124.901 35.592C125.765 34.704 126.197 33.492 126.197 31.956ZM135.582 31.956C135.582 29.868 136.002 28.044 136.842 26.484C137.706 24.924 138.894 23.724 140.406 22.884C141.942 22.044 143.694 21.624 145.662 21.624C148.182 21.624 150.282 22.284 151.962 23.604C153.666 24.924 154.782 26.784 155.31 29.184H148.758C148.206 27.648 147.138 26.88 145.554 26.88C144.426 26.88 143.526 27.324 142.854 28.212C142.182 29.076 141.846 30.324 141.846 31.956C141.846 33.588 142.182 34.848 142.854 35.736C143.526 36.6 144.426 37.032 145.554 37.032C147.138 37.032 148.206 36.264 148.758 34.728H155.31C154.782 37.08 153.666 38.928 151.962 40.272C150.258 41.616 148.158 42.288 145.662 42.288C143.694 42.288 141.942 41.868 140.406 41.028C138.894 40.188 137.706 38.988 136.842 37.428C136.002 35.868 135.582 34.044 135.582 31.956ZM170.879 42L164.759 33.576V42H158.603V15.36H164.759V30.084L170.843 21.912H178.439L170.087 31.992L178.511 42H170.879Z" fill="#3C3434"/>
</svg>
