<svg width="114" height="114" viewBox="0 0 114 114" fill="none" xmlns="http://www.w3.org/2000/svg">
<g clip-path="url(#clip0_10_81)">
<path d="M57.0001 114C88.4804 114 114 88.4804 114 57.0001C114 25.5198 88.4804 0 57.0001 0C25.5198 0 0 25.5198 0 57.0001C0 88.4804 25.5198 114 57.0001 114Z" fill="#D42428"/>
<path d="M97.3033 16.6887C119.563 38.9506 119.565 75.0424 97.3033 97.3042C75.0434 119.564 38.9497 119.565 16.6878 97.3042L97.3033 16.6887Z" fill="#CC202D"/>
<path d="M112.854 68.4163L84.6431 40.2061L51.371 43.9943L31.2451 75.1521L68.8518 112.758C90.9624 108.081 108.345 90.5908 112.854 68.4163Z" fill="#BA202E"/>
<path d="M86.8284 46.0007C86.8284 41.2223 82.9574 37.3494 78.1817 37.3494H37.6139C32.8392 37.3494 28.9689 41.2233 28.9689 46.0007V69.1994C28.9689 73.9778 32.8399 77.8508 37.6139 77.8508H78.181C82.9577 77.8508 86.8277 73.9768 86.8277 69.1994V46.0007H86.8284ZM52.1109 67.3867V45.5975L68.6349 56.4926L52.1109 67.3867Z" fill="white"/>
</g>
<defs>
<clipPath id="clip0_10_81">
<rect width="114" height="114" fill="white"/>
</clipPath>
</defs>
</svg>
