<svg width="25" height="17" viewBox="0 0 25 17" fill="none" xmlns="http://www.w3.org/2000/svg">
<path d="M24.4776 2.60777C24.1901 1.58129 23.3429 0.772873 22.2673 0.498524C20.3177 0 12.5 0 12.5 0C12.5 0 4.68232 0 2.73266 0.498524C1.65706 0.772917 0.80992 1.58129 0.522399 2.60777C0 4.46832 0 8.35017 0 8.35017C0 8.35017 0 12.232 0.522399 14.0926C0.80992 15.1191 1.65706 15.8938 2.73266 16.1681C4.68232 16.6667 12.5 16.6667 12.5 16.6667C12.5 16.6667 20.3177 16.6667 22.2673 16.1681C23.3429 15.8938 24.1901 15.1191 24.4776 14.0926C25 12.232 25 8.35017 25 8.35017C25 8.35017 25 4.46832 24.4776 2.60777ZM9.94316 11.8746V4.82574L16.4772 8.35026L9.94316 11.8746Z" fill="white"/>
</svg>
