<svg width="183" style="background-color:rgba(0, 0, 0, 0.7); padding: 0 10px; " height="53" viewBox="0 0 183 53" fill="none" xmlns="http://www.w3.org/2000/svg">
<circle cx="21.4038" cy="31.5962" r="20.3846" stroke="white" stroke-width="2.03846"/>
<circle cx="10.4471" cy="10.4471" r="9.42788" fill="#FB03D3" stroke="#FB03D3" stroke-width="2.03846"/>
<path d="M78.4157 15.036V19.42H69.2637V24.156H76.1117V28.412H69.2637V37.5H63.7917V15.036H78.4157ZM84.0437 17.788C83.0837 17.788 82.2944 17.5107 81.6757 16.956C81.0784 16.38 80.7797 15.676 80.7797 14.844C80.7797 13.9907 81.0784 13.2867 81.6757 12.732C82.2944 12.156 83.0837 11.868 84.0437 11.868C84.9824 11.868 85.7504 12.156 86.3477 12.732C86.9664 13.2867 87.2757 13.9907 87.2757 14.844C87.2757 15.676 86.9664 16.38 86.3477 16.956C85.7504 17.5107 84.9824 17.788 84.0437 17.788ZM86.7637 19.644V37.5H81.2917V19.644H86.7637ZM101.289 37.5L97.8652 32.54L94.9852 37.5H89.0652L94.9532 28.38L88.9052 19.644H95.0492L98.4732 24.572L101.353 19.644H107.273L101.289 28.636L107.433 37.5H101.289Z" fill="#FB03D3"/>
<path d="M115.014 22.172C115.526 21.34 116.262 20.668 117.222 20.156C118.182 19.644 119.28 19.388 120.518 19.388C121.99 19.388 123.323 19.7613 124.518 20.508C125.712 21.2547 126.651 22.3213 127.334 23.708C128.038 25.0947 128.39 26.7053 128.39 28.54C128.39 30.3747 128.038 31.996 127.334 33.404C126.651 34.7907 125.712 35.868 124.518 36.636C123.323 37.3827 121.99 37.756 120.518 37.756C119.259 37.756 118.16 37.5107 117.222 37.02C116.283 36.508 115.547 35.836 115.014 35.004V37.5H109.542V13.82H115.014V22.172ZM122.822 28.54C122.822 27.1747 122.438 26.108 121.67 25.34C120.923 24.5507 119.995 24.156 118.886 24.156C117.798 24.156 116.87 24.5507 116.102 25.34C115.355 26.1293 114.982 27.2067 114.982 28.572C114.982 29.9373 115.355 31.0147 116.102 31.804C116.87 32.5933 117.798 32.988 118.886 32.988C119.974 32.988 120.902 32.5933 121.67 31.804C122.438 30.9933 122.822 29.9053 122.822 28.54ZM149.5 19.644L138.3 45.98H132.412L136.508 36.892L129.244 19.644H135.356L139.484 30.812L143.58 19.644H149.5ZM161.431 32.86V37.5H158.647C156.663 37.5 155.117 37.02 154.007 36.06C152.898 35.0787 152.343 33.4893 152.343 31.292V24.188H150.167V19.644H152.343V15.292H157.815V19.644H161.399V24.188H157.815V31.356C157.815 31.8893 157.943 32.2733 158.199 32.508C158.455 32.7427 158.882 32.86 159.479 32.86H161.431ZM181.311 28.284C181.311 28.796 181.279 29.3293 181.215 29.884H168.831C168.917 30.9933 169.269 31.8467 169.887 32.444C170.527 33.02 171.306 33.308 172.223 33.308C173.589 33.308 174.538 32.732 175.071 31.58H180.895C180.597 32.7533 180.053 33.8093 179.263 34.748C178.495 35.6867 177.525 36.4227 176.351 36.956C175.178 37.4893 173.866 37.756 172.415 37.756C170.666 37.756 169.109 37.3827 167.743 36.636C166.378 35.8893 165.311 34.8227 164.543 33.436C163.775 32.0493 163.391 30.428 163.391 28.572C163.391 26.716 163.765 25.0947 164.511 23.708C165.279 22.3213 166.346 21.2547 167.711 20.508C169.077 19.7613 170.645 19.388 172.415 19.388C174.143 19.388 175.679 19.7507 177.023 20.476C178.367 21.2013 179.413 22.236 180.159 23.58C180.927 24.924 181.311 26.492 181.311 28.284ZM175.711 26.844C175.711 25.9053 175.391 25.1587 174.751 24.604C174.111 24.0493 173.311 23.772 172.351 23.772C171.434 23.772 170.655 24.0387 170.015 24.572C169.397 25.1053 169.013 25.8627 168.863 26.844H175.711Z" fill="white"/>
</svg>
